%TF.GenerationSoftware,KiCad,Pcbnew,7.0.6*%
%TF.CreationDate,2024-04-11T11:50:25+05:30*%
%TF.ProjectId,jstxh compact splitter board,6a737478-6820-4636-9f6d-706163742073,rev?*%
%TF.SameCoordinates,Original*%
%TF.FileFunction,Legend,Top*%
%TF.FilePolarity,Positive*%
%FSLAX46Y46*%
G04 Gerber Fmt 4.6, Leading zero omitted, Abs format (unit mm)*
G04 Created by KiCad (PCBNEW 7.0.6) date 2024-04-11 11:50:25*
%MOMM*%
%LPD*%
G01*
G04 APERTURE LIST*
G04 Aperture macros list*
%AMRoundRect*
0 Rectangle with rounded corners*
0 $1 Rounding radius*
0 $2 $3 $4 $5 $6 $7 $8 $9 X,Y pos of 4 corners*
0 Add a 4 corners polygon primitive as box body*
4,1,4,$2,$3,$4,$5,$6,$7,$8,$9,$2,$3,0*
0 Add four circle primitives for the rounded corners*
1,1,$1+$1,$2,$3*
1,1,$1+$1,$4,$5*
1,1,$1+$1,$6,$7*
1,1,$1+$1,$8,$9*
0 Add four rect primitives between the rounded corners*
20,1,$1+$1,$2,$3,$4,$5,0*
20,1,$1+$1,$4,$5,$6,$7,0*
20,1,$1+$1,$6,$7,$8,$9,0*
20,1,$1+$1,$8,$9,$2,$3,0*%
G04 Aperture macros list end*
%ADD10C,0.150000*%
%ADD11C,0.120000*%
%ADD12C,1.200000*%
%ADD13RoundRect,0.250000X0.750000X-0.600000X0.750000X0.600000X-0.750000X0.600000X-0.750000X-0.600000X0*%
%ADD14O,2.000000X1.700000*%
%ADD15C,3.600000*%
%ADD16C,5.700000*%
G04 APERTURE END LIST*
D10*
X124873569Y-79239583D02*
X125587854Y-79239583D01*
X125587854Y-79239583D02*
X125730711Y-79287202D01*
X125730711Y-79287202D02*
X125825950Y-79382440D01*
X125825950Y-79382440D02*
X125873569Y-79525297D01*
X125873569Y-79525297D02*
X125873569Y-79620535D01*
X124968807Y-78811011D02*
X124921188Y-78763392D01*
X124921188Y-78763392D02*
X124873569Y-78668154D01*
X124873569Y-78668154D02*
X124873569Y-78430059D01*
X124873569Y-78430059D02*
X124921188Y-78334821D01*
X124921188Y-78334821D02*
X124968807Y-78287202D01*
X124968807Y-78287202D02*
X125064045Y-78239583D01*
X125064045Y-78239583D02*
X125159283Y-78239583D01*
X125159283Y-78239583D02*
X125302140Y-78287202D01*
X125302140Y-78287202D02*
X125873569Y-78858630D01*
X125873569Y-78858630D02*
X125873569Y-78239583D01*
X116823569Y-79239583D02*
X117537854Y-79239583D01*
X117537854Y-79239583D02*
X117680711Y-79287202D01*
X117680711Y-79287202D02*
X117775950Y-79382440D01*
X117775950Y-79382440D02*
X117823569Y-79525297D01*
X117823569Y-79525297D02*
X117823569Y-79620535D01*
X117823569Y-78239583D02*
X117823569Y-78811011D01*
X117823569Y-78525297D02*
X116823569Y-78525297D01*
X116823569Y-78525297D02*
X116966426Y-78620535D01*
X116966426Y-78620535D02*
X117061664Y-78715773D01*
X117061664Y-78715773D02*
X117109283Y-78811011D01*
X132811069Y-79217224D02*
X133525354Y-79217224D01*
X133525354Y-79217224D02*
X133668211Y-79264843D01*
X133668211Y-79264843D02*
X133763450Y-79360081D01*
X133763450Y-79360081D02*
X133811069Y-79502938D01*
X133811069Y-79502938D02*
X133811069Y-79598176D01*
X132811069Y-78836271D02*
X132811069Y-78217224D01*
X132811069Y-78217224D02*
X133192021Y-78550557D01*
X133192021Y-78550557D02*
X133192021Y-78407700D01*
X133192021Y-78407700D02*
X133239640Y-78312462D01*
X133239640Y-78312462D02*
X133287259Y-78264843D01*
X133287259Y-78264843D02*
X133382497Y-78217224D01*
X133382497Y-78217224D02*
X133620592Y-78217224D01*
X133620592Y-78217224D02*
X133715830Y-78264843D01*
X133715830Y-78264843D02*
X133763450Y-78312462D01*
X133763450Y-78312462D02*
X133811069Y-78407700D01*
X133811069Y-78407700D02*
X133811069Y-78693414D01*
X133811069Y-78693414D02*
X133763450Y-78788652D01*
X133763450Y-78788652D02*
X133715830Y-78836271D01*
D11*
X126218750Y-83006250D02*
X127468750Y-83006250D01*
X126508750Y-82716250D02*
X132478750Y-82716250D01*
X132478750Y-82716250D02*
X132478750Y-75096250D01*
X126518750Y-82706250D02*
X127268750Y-82706250D01*
X127268750Y-82706250D02*
X127268750Y-80906250D01*
X128768750Y-82706250D02*
X128768750Y-81956250D01*
X128768750Y-81956250D02*
X130108750Y-81956250D01*
X126218750Y-81756250D02*
X126218750Y-83006250D01*
X126518750Y-80906250D02*
X126518750Y-82706250D01*
X127268750Y-80906250D02*
X126518750Y-80906250D01*
X126518750Y-79406250D02*
X127268750Y-79406250D01*
X127268750Y-79406250D02*
X127268750Y-78406250D01*
X131718750Y-78906250D02*
X131718750Y-80896250D01*
X126518750Y-78406250D02*
X126518750Y-79406250D01*
X127268750Y-78406250D02*
X126518750Y-78406250D01*
X126518750Y-76906250D02*
X127268750Y-76906250D01*
X127268750Y-76906250D02*
X127268750Y-75106250D01*
X128768750Y-75856250D02*
X131718750Y-75856250D01*
X131718750Y-75856250D02*
X131718750Y-78906250D01*
X126518750Y-75106250D02*
X126518750Y-76906250D01*
X127268750Y-75106250D02*
X126518750Y-75106250D01*
X128768750Y-75106250D02*
X128768750Y-75856250D01*
X126508750Y-75096250D02*
X126508750Y-82716250D01*
X132478750Y-75096250D02*
X126508750Y-75096250D01*
X118168750Y-83006250D02*
X119418750Y-83006250D01*
X118458750Y-82716250D02*
X124428750Y-82716250D01*
X124428750Y-82716250D02*
X124428750Y-75096250D01*
X118468750Y-82706250D02*
X119218750Y-82706250D01*
X119218750Y-82706250D02*
X119218750Y-80906250D01*
X120718750Y-82706250D02*
X120718750Y-81956250D01*
X120718750Y-81956250D02*
X122058750Y-81956250D01*
X118168750Y-81756250D02*
X118168750Y-83006250D01*
X118468750Y-80906250D02*
X118468750Y-82706250D01*
X119218750Y-80906250D02*
X118468750Y-80906250D01*
X118468750Y-79406250D02*
X119218750Y-79406250D01*
X119218750Y-79406250D02*
X119218750Y-78406250D01*
X123668750Y-78906250D02*
X123668750Y-80896250D01*
X118468750Y-78406250D02*
X118468750Y-79406250D01*
X119218750Y-78406250D02*
X118468750Y-78406250D01*
X118468750Y-76906250D02*
X119218750Y-76906250D01*
X119218750Y-76906250D02*
X119218750Y-75106250D01*
X120718750Y-75856250D02*
X123668750Y-75856250D01*
X123668750Y-75856250D02*
X123668750Y-78906250D01*
X118468750Y-75106250D02*
X118468750Y-76906250D01*
X119218750Y-75106250D02*
X118468750Y-75106250D01*
X120718750Y-75106250D02*
X120718750Y-75856250D01*
X118458750Y-75096250D02*
X118458750Y-82716250D01*
X124428750Y-75096250D02*
X118458750Y-75096250D01*
X134156250Y-82983891D02*
X135406250Y-82983891D01*
X134446250Y-82693891D02*
X140416250Y-82693891D01*
X140416250Y-82693891D02*
X140416250Y-75073891D01*
X134456250Y-82683891D02*
X135206250Y-82683891D01*
X135206250Y-82683891D02*
X135206250Y-80883891D01*
X136706250Y-82683891D02*
X136706250Y-81933891D01*
X136706250Y-81933891D02*
X138046250Y-81933891D01*
X134156250Y-81733891D02*
X134156250Y-82983891D01*
X134456250Y-80883891D02*
X134456250Y-82683891D01*
X135206250Y-80883891D02*
X134456250Y-80883891D01*
X134456250Y-79383891D02*
X135206250Y-79383891D01*
X135206250Y-79383891D02*
X135206250Y-78383891D01*
X139656250Y-78883891D02*
X139656250Y-80873891D01*
X134456250Y-78383891D02*
X134456250Y-79383891D01*
X135206250Y-78383891D02*
X134456250Y-78383891D01*
X134456250Y-76883891D02*
X135206250Y-76883891D01*
X135206250Y-76883891D02*
X135206250Y-75083891D01*
X136706250Y-75833891D02*
X139656250Y-75833891D01*
X139656250Y-75833891D02*
X139656250Y-78883891D01*
X134456250Y-75083891D02*
X134456250Y-76883891D01*
X135206250Y-75083891D02*
X134456250Y-75083891D01*
X136706250Y-75083891D02*
X136706250Y-75833891D01*
X134446250Y-75073891D02*
X134446250Y-82693891D01*
X140416250Y-75073891D02*
X134446250Y-75073891D01*
%LPC*%
D12*
X130968750Y-81756250D03*
D13*
X128968750Y-80156250D03*
D14*
X128968750Y-77656250D03*
D12*
X122918750Y-81756250D03*
D13*
X120918750Y-80156250D03*
D14*
X120918750Y-77656250D03*
D15*
X113506250Y-78581250D03*
D16*
X113506250Y-78581250D03*
D12*
X138906250Y-81733891D03*
D13*
X136906250Y-80133891D03*
D14*
X136906250Y-77633891D03*
%LPD*%
M02*
