%TF.GenerationSoftware,KiCad,Pcbnew,7.0.6*%
%TF.CreationDate,2024-04-11T11:50:25+05:30*%
%TF.ProjectId,jstxh compact splitter board,6a737478-6820-4636-9f6d-706163742073,rev?*%
%TF.SameCoordinates,Original*%
%TF.FileFunction,Copper,L2,Bot*%
%TF.FilePolarity,Positive*%
%FSLAX46Y46*%
G04 Gerber Fmt 4.6, Leading zero omitted, Abs format (unit mm)*
G04 Created by KiCad (PCBNEW 7.0.6) date 2024-04-11 11:50:25*
%MOMM*%
%LPD*%
G01*
G04 APERTURE LIST*
G04 Aperture macros list*
%AMRoundRect*
0 Rectangle with rounded corners*
0 $1 Rounding radius*
0 $2 $3 $4 $5 $6 $7 $8 $9 X,Y pos of 4 corners*
0 Add a 4 corners polygon primitive as box body*
4,1,4,$2,$3,$4,$5,$6,$7,$8,$9,$2,$3,0*
0 Add four circle primitives for the rounded corners*
1,1,$1+$1,$2,$3*
1,1,$1+$1,$4,$5*
1,1,$1+$1,$6,$7*
1,1,$1+$1,$8,$9*
0 Add four rect primitives between the rounded corners*
20,1,$1+$1,$2,$3,$4,$5,0*
20,1,$1+$1,$4,$5,$6,$7,0*
20,1,$1+$1,$6,$7,$8,$9,0*
20,1,$1+$1,$8,$9,$2,$3,0*%
G04 Aperture macros list end*
%TA.AperFunction,ComponentPad*%
%ADD10RoundRect,0.250000X0.750000X-0.600000X0.750000X0.600000X-0.750000X0.600000X-0.750000X-0.600000X0*%
%TD*%
%TA.AperFunction,ComponentPad*%
%ADD11O,2.000000X1.700000*%
%TD*%
%TA.AperFunction,ComponentPad*%
%ADD12C,3.600000*%
%TD*%
%TA.AperFunction,ConnectorPad*%
%ADD13C,5.700000*%
%TD*%
%TA.AperFunction,Conductor*%
%ADD14C,0.500000*%
%TD*%
%TA.AperFunction,Conductor*%
%ADD15C,0.250000*%
%TD*%
G04 APERTURE END LIST*
D10*
X128968750Y-80156250D03*
D11*
X128968750Y-77656250D03*
D10*
X120918750Y-80156250D03*
D11*
X120918750Y-77656250D03*
D12*
X113506250Y-78581250D03*
D13*
X113506250Y-78581250D03*
D10*
X136906250Y-80133891D03*
D11*
X136906250Y-77633891D03*
D14*
X136906250Y-80133891D02*
X128991109Y-80133891D01*
D15*
X128991109Y-80133891D02*
X128968750Y-80156250D01*
D14*
X128968750Y-80156250D02*
X120918750Y-80156250D01*
%TA.AperFunction,Conductor*%
G36*
X140436789Y-73838435D02*
G01*
X140482544Y-73891239D01*
X140493750Y-73942750D01*
X140493750Y-78457250D01*
X140474065Y-78524289D01*
X140421261Y-78570044D01*
X140369750Y-78581250D01*
X138279149Y-78581250D01*
X138212110Y-78561565D01*
X138166355Y-78508761D01*
X138156411Y-78439603D01*
X138177575Y-78386126D01*
X138229845Y-78311476D01*
X138229849Y-78311470D01*
X138329679Y-78097383D01*
X138329682Y-78097377D01*
X138386886Y-77883891D01*
X137339936Y-77883891D01*
X137365743Y-77843735D01*
X137406250Y-77705780D01*
X137406250Y-77562002D01*
X137365743Y-77424047D01*
X137339936Y-77383891D01*
X138386886Y-77383891D01*
X138386885Y-77383890D01*
X138329682Y-77170404D01*
X138329679Y-77170398D01*
X138229850Y-76956313D01*
X138229849Y-76956311D01*
X138094363Y-76762817D01*
X138094358Y-76762811D01*
X137927329Y-76595782D01*
X137927323Y-76595777D01*
X137733829Y-76460291D01*
X137733827Y-76460290D01*
X137519742Y-76360461D01*
X137519733Y-76360457D01*
X137291576Y-76299323D01*
X137291566Y-76299321D01*
X137156250Y-76287481D01*
X137156250Y-77198389D01*
X137048565Y-77149211D01*
X136942013Y-77133891D01*
X136870487Y-77133891D01*
X136763935Y-77149211D01*
X136656250Y-77198389D01*
X136656250Y-76287482D01*
X136656249Y-76287481D01*
X136520933Y-76299321D01*
X136520923Y-76299323D01*
X136292766Y-76360457D01*
X136292757Y-76360461D01*
X136078672Y-76460290D01*
X136078670Y-76460291D01*
X135885176Y-76595777D01*
X135885170Y-76595782D01*
X135718144Y-76762808D01*
X135582649Y-76956312D01*
X135482820Y-77170398D01*
X135482817Y-77170404D01*
X135425614Y-77383890D01*
X135425614Y-77383891D01*
X136472564Y-77383891D01*
X136446757Y-77424047D01*
X136406250Y-77562002D01*
X136406250Y-77705780D01*
X136446757Y-77843735D01*
X136472564Y-77883891D01*
X135425614Y-77883891D01*
X135482817Y-78097377D01*
X135482820Y-78097383D01*
X135582648Y-78311466D01*
X135634926Y-78386126D01*
X135657253Y-78452332D01*
X135640243Y-78520100D01*
X135589295Y-78567913D01*
X135533351Y-78581250D01*
X130357305Y-78581250D01*
X130290266Y-78561565D01*
X130244511Y-78508761D01*
X130234567Y-78439603D01*
X130255731Y-78386126D01*
X130292346Y-78333835D01*
X130292349Y-78333829D01*
X130392179Y-78119742D01*
X130392182Y-78119736D01*
X130449386Y-77906250D01*
X129402436Y-77906250D01*
X129428243Y-77866094D01*
X129468750Y-77728139D01*
X129468750Y-77584361D01*
X129428243Y-77446406D01*
X129402436Y-77406250D01*
X130449386Y-77406250D01*
X130449385Y-77406249D01*
X130392182Y-77192763D01*
X130392179Y-77192757D01*
X130292350Y-76978672D01*
X130292349Y-76978670D01*
X130156863Y-76785176D01*
X130156858Y-76785170D01*
X129989829Y-76618141D01*
X129989823Y-76618136D01*
X129796329Y-76482650D01*
X129796327Y-76482649D01*
X129582242Y-76382820D01*
X129582233Y-76382816D01*
X129354076Y-76321682D01*
X129354066Y-76321680D01*
X129218750Y-76309840D01*
X129218750Y-77220748D01*
X129111065Y-77171570D01*
X129004513Y-77156250D01*
X128932987Y-77156250D01*
X128826435Y-77171570D01*
X128718749Y-77220748D01*
X128718750Y-76309841D01*
X128718749Y-76309840D01*
X128583433Y-76321680D01*
X128583423Y-76321682D01*
X128355266Y-76382816D01*
X128355257Y-76382820D01*
X128141172Y-76482649D01*
X128141170Y-76482650D01*
X127947676Y-76618136D01*
X127947670Y-76618141D01*
X127780644Y-76785167D01*
X127645149Y-76978671D01*
X127545320Y-77192757D01*
X127545317Y-77192763D01*
X127488114Y-77406249D01*
X127488114Y-77406250D01*
X128535064Y-77406250D01*
X128509257Y-77446406D01*
X128468750Y-77584361D01*
X128468750Y-77728139D01*
X128509257Y-77866094D01*
X128535064Y-77906250D01*
X127488114Y-77906250D01*
X127545317Y-78119736D01*
X127545320Y-78119742D01*
X127645148Y-78333825D01*
X127681770Y-78386126D01*
X127704097Y-78452332D01*
X127687087Y-78520100D01*
X127636139Y-78567913D01*
X127580195Y-78581250D01*
X122307305Y-78581250D01*
X122240266Y-78561565D01*
X122194511Y-78508761D01*
X122184567Y-78439603D01*
X122205731Y-78386126D01*
X122242346Y-78333835D01*
X122242349Y-78333829D01*
X122342179Y-78119742D01*
X122342182Y-78119736D01*
X122399386Y-77906250D01*
X121352436Y-77906250D01*
X121378243Y-77866094D01*
X121418750Y-77728139D01*
X121418750Y-77584361D01*
X121378243Y-77446406D01*
X121352436Y-77406250D01*
X122399386Y-77406250D01*
X122399385Y-77406249D01*
X122342182Y-77192763D01*
X122342179Y-77192757D01*
X122242350Y-76978672D01*
X122242349Y-76978670D01*
X122106863Y-76785176D01*
X122106858Y-76785170D01*
X121939829Y-76618141D01*
X121939823Y-76618136D01*
X121746329Y-76482650D01*
X121746327Y-76482649D01*
X121532242Y-76382820D01*
X121532233Y-76382816D01*
X121304076Y-76321682D01*
X121304066Y-76321680D01*
X121168750Y-76309840D01*
X121168750Y-77220748D01*
X121061065Y-77171570D01*
X120954513Y-77156250D01*
X120882987Y-77156250D01*
X120776435Y-77171570D01*
X120668750Y-77220748D01*
X120668750Y-76309841D01*
X120668749Y-76309840D01*
X120533433Y-76321680D01*
X120533423Y-76321682D01*
X120305266Y-76382816D01*
X120305257Y-76382820D01*
X120091172Y-76482649D01*
X120091170Y-76482650D01*
X119897676Y-76618136D01*
X119897670Y-76618141D01*
X119730644Y-76785167D01*
X119595149Y-76978671D01*
X119495320Y-77192757D01*
X119495317Y-77192763D01*
X119438114Y-77406249D01*
X119438114Y-77406250D01*
X120485064Y-77406250D01*
X120459257Y-77446406D01*
X120418750Y-77584361D01*
X120418750Y-77728139D01*
X120459257Y-77866094D01*
X120485064Y-77906250D01*
X119438114Y-77906250D01*
X119495317Y-78119736D01*
X119495320Y-78119742D01*
X119595148Y-78333825D01*
X119631770Y-78386126D01*
X119654097Y-78452332D01*
X119637087Y-78520100D01*
X119586139Y-78567913D01*
X119530195Y-78581250D01*
X118392750Y-78581250D01*
X118325711Y-78561565D01*
X118279956Y-78508761D01*
X118268750Y-78457250D01*
X118268750Y-73942750D01*
X118288435Y-73875711D01*
X118341239Y-73829956D01*
X118392750Y-73818750D01*
X140369750Y-73818750D01*
X140436789Y-73838435D01*
G37*
%TD.AperFunction*%
M02*
