%TF.GenerationSoftware,KiCad,Pcbnew,7.0.6*%
%TF.CreationDate,2024-03-28T00:03:02+05:30*%
%TF.ProjectId,jstxh splitter board,6a737478-6820-4737-906c-697474657220,rev?*%
%TF.SameCoordinates,Original*%
%TF.FileFunction,Legend,Bot*%
%TF.FilePolarity,Positive*%
%FSLAX46Y46*%
G04 Gerber Fmt 4.6, Leading zero omitted, Abs format (unit mm)*
G04 Created by KiCad (PCBNEW 7.0.6) date 2024-03-28 00:03:02*
%MOMM*%
%LPD*%
G01*
G04 APERTURE LIST*
G04 Aperture macros list*
%AMRoundRect*
0 Rectangle with rounded corners*
0 $1 Rounding radius*
0 $2 $3 $4 $5 $6 $7 $8 $9 X,Y pos of 4 corners*
0 Add a 4 corners polygon primitive as box body*
4,1,4,$2,$3,$4,$5,$6,$7,$8,$9,$2,$3,0*
0 Add four circle primitives for the rounded corners*
1,1,$1+$1,$2,$3*
1,1,$1+$1,$4,$5*
1,1,$1+$1,$6,$7*
1,1,$1+$1,$8,$9*
0 Add four rect primitives between the rounded corners*
20,1,$1+$1,$2,$3,$4,$5,0*
20,1,$1+$1,$4,$5,$6,$7,0*
20,1,$1+$1,$6,$7,$8,$9,0*
20,1,$1+$1,$8,$9,$2,$3,0*%
G04 Aperture macros list end*
%ADD10C,0.150000*%
%ADD11C,1.200000*%
%ADD12RoundRect,0.250000X0.750000X-0.600000X0.750000X0.600000X-0.750000X0.600000X-0.750000X-0.600000X0*%
%ADD13O,2.000000X1.700000*%
%ADD14C,3.600000*%
%ADD15C,5.700000*%
G04 APERTURE END LIST*
D10*
X154263518Y-82737545D02*
X154263518Y-83308973D01*
X154263518Y-83308973D02*
X154301613Y-83423259D01*
X154301613Y-83423259D02*
X154377804Y-83499450D01*
X154377804Y-83499450D02*
X154492089Y-83537545D01*
X154492089Y-83537545D02*
X154568280Y-83537545D01*
X153920661Y-83499450D02*
X153806375Y-83537545D01*
X153806375Y-83537545D02*
X153615899Y-83537545D01*
X153615899Y-83537545D02*
X153539708Y-83499450D01*
X153539708Y-83499450D02*
X153501613Y-83461354D01*
X153501613Y-83461354D02*
X153463518Y-83385164D01*
X153463518Y-83385164D02*
X153463518Y-83308973D01*
X153463518Y-83308973D02*
X153501613Y-83232783D01*
X153501613Y-83232783D02*
X153539708Y-83194688D01*
X153539708Y-83194688D02*
X153615899Y-83156592D01*
X153615899Y-83156592D02*
X153768280Y-83118497D01*
X153768280Y-83118497D02*
X153844470Y-83080402D01*
X153844470Y-83080402D02*
X153882565Y-83042307D01*
X153882565Y-83042307D02*
X153920661Y-82966116D01*
X153920661Y-82966116D02*
X153920661Y-82889926D01*
X153920661Y-82889926D02*
X153882565Y-82813735D01*
X153882565Y-82813735D02*
X153844470Y-82775640D01*
X153844470Y-82775640D02*
X153768280Y-82737545D01*
X153768280Y-82737545D02*
X153577803Y-82737545D01*
X153577803Y-82737545D02*
X153463518Y-82775640D01*
X153234946Y-82737545D02*
X152777803Y-82737545D01*
X153006375Y-83537545D02*
X153006375Y-82737545D01*
X152511136Y-83232783D02*
X151901613Y-83232783D01*
X151596851Y-82737545D02*
X151063517Y-83537545D01*
X151063517Y-82737545D02*
X151596851Y-83537545D01*
X150758755Y-83537545D02*
X150758755Y-82737545D01*
X150758755Y-83118497D02*
X150301612Y-83118497D01*
X150301612Y-83537545D02*
X150301612Y-82737545D01*
X149349232Y-82813735D02*
X149311136Y-82775640D01*
X149311136Y-82775640D02*
X149234946Y-82737545D01*
X149234946Y-82737545D02*
X149044470Y-82737545D01*
X149044470Y-82737545D02*
X148968279Y-82775640D01*
X148968279Y-82775640D02*
X148930184Y-82813735D01*
X148930184Y-82813735D02*
X148892089Y-82889926D01*
X148892089Y-82889926D02*
X148892089Y-82966116D01*
X148892089Y-82966116D02*
X148930184Y-83080402D01*
X148930184Y-83080402D02*
X149387327Y-83537545D01*
X149387327Y-83537545D02*
X148892089Y-83537545D01*
X148549231Y-83232783D02*
X147939708Y-83232783D01*
X147558755Y-83004211D02*
X147558755Y-83804211D01*
X147558755Y-83042307D02*
X147482565Y-83004211D01*
X147482565Y-83004211D02*
X147330184Y-83004211D01*
X147330184Y-83004211D02*
X147253993Y-83042307D01*
X147253993Y-83042307D02*
X147215898Y-83080402D01*
X147215898Y-83080402D02*
X147177803Y-83156592D01*
X147177803Y-83156592D02*
X147177803Y-83385164D01*
X147177803Y-83385164D02*
X147215898Y-83461354D01*
X147215898Y-83461354D02*
X147253993Y-83499450D01*
X147253993Y-83499450D02*
X147330184Y-83537545D01*
X147330184Y-83537545D02*
X147482565Y-83537545D01*
X147482565Y-83537545D02*
X147558755Y-83499450D01*
X146834945Y-83537545D02*
X146834945Y-83004211D01*
X146834945Y-82737545D02*
X146873041Y-82775640D01*
X146873041Y-82775640D02*
X146834945Y-82813735D01*
X146834945Y-82813735D02*
X146796850Y-82775640D01*
X146796850Y-82775640D02*
X146834945Y-82737545D01*
X146834945Y-82737545D02*
X146834945Y-82813735D01*
X146453993Y-83004211D02*
X146453993Y-83537545D01*
X146453993Y-83080402D02*
X146415898Y-83042307D01*
X146415898Y-83042307D02*
X146339708Y-83004211D01*
X146339708Y-83004211D02*
X146225422Y-83004211D01*
X146225422Y-83004211D02*
X146149231Y-83042307D01*
X146149231Y-83042307D02*
X146111136Y-83118497D01*
X146111136Y-83118497D02*
X146111136Y-83537545D01*
X145158755Y-83499450D02*
X145044469Y-83537545D01*
X145044469Y-83537545D02*
X144853993Y-83537545D01*
X144853993Y-83537545D02*
X144777802Y-83499450D01*
X144777802Y-83499450D02*
X144739707Y-83461354D01*
X144739707Y-83461354D02*
X144701612Y-83385164D01*
X144701612Y-83385164D02*
X144701612Y-83308973D01*
X144701612Y-83308973D02*
X144739707Y-83232783D01*
X144739707Y-83232783D02*
X144777802Y-83194688D01*
X144777802Y-83194688D02*
X144853993Y-83156592D01*
X144853993Y-83156592D02*
X145006374Y-83118497D01*
X145006374Y-83118497D02*
X145082564Y-83080402D01*
X145082564Y-83080402D02*
X145120659Y-83042307D01*
X145120659Y-83042307D02*
X145158755Y-82966116D01*
X145158755Y-82966116D02*
X145158755Y-82889926D01*
X145158755Y-82889926D02*
X145120659Y-82813735D01*
X145120659Y-82813735D02*
X145082564Y-82775640D01*
X145082564Y-82775640D02*
X145006374Y-82737545D01*
X145006374Y-82737545D02*
X144815897Y-82737545D01*
X144815897Y-82737545D02*
X144701612Y-82775640D01*
X144358754Y-83004211D02*
X144358754Y-83804211D01*
X144358754Y-83042307D02*
X144282564Y-83004211D01*
X144282564Y-83004211D02*
X144130183Y-83004211D01*
X144130183Y-83004211D02*
X144053992Y-83042307D01*
X144053992Y-83042307D02*
X144015897Y-83080402D01*
X144015897Y-83080402D02*
X143977802Y-83156592D01*
X143977802Y-83156592D02*
X143977802Y-83385164D01*
X143977802Y-83385164D02*
X144015897Y-83461354D01*
X144015897Y-83461354D02*
X144053992Y-83499450D01*
X144053992Y-83499450D02*
X144130183Y-83537545D01*
X144130183Y-83537545D02*
X144282564Y-83537545D01*
X144282564Y-83537545D02*
X144358754Y-83499450D01*
X143520659Y-83537545D02*
X143596849Y-83499450D01*
X143596849Y-83499450D02*
X143634944Y-83423259D01*
X143634944Y-83423259D02*
X143634944Y-82737545D01*
X143215896Y-83537545D02*
X143215896Y-83004211D01*
X143215896Y-82737545D02*
X143253992Y-82775640D01*
X143253992Y-82775640D02*
X143215896Y-82813735D01*
X143215896Y-82813735D02*
X143177801Y-82775640D01*
X143177801Y-82775640D02*
X143215896Y-82737545D01*
X143215896Y-82737545D02*
X143215896Y-82813735D01*
X142949230Y-83004211D02*
X142644468Y-83004211D01*
X142834944Y-82737545D02*
X142834944Y-83423259D01*
X142834944Y-83423259D02*
X142796849Y-83499450D01*
X142796849Y-83499450D02*
X142720659Y-83537545D01*
X142720659Y-83537545D02*
X142644468Y-83537545D01*
X142492087Y-83004211D02*
X142187325Y-83004211D01*
X142377801Y-82737545D02*
X142377801Y-83423259D01*
X142377801Y-83423259D02*
X142339706Y-83499450D01*
X142339706Y-83499450D02*
X142263516Y-83537545D01*
X142263516Y-83537545D02*
X142187325Y-83537545D01*
X141615896Y-83499450D02*
X141692087Y-83537545D01*
X141692087Y-83537545D02*
X141844468Y-83537545D01*
X141844468Y-83537545D02*
X141920658Y-83499450D01*
X141920658Y-83499450D02*
X141958754Y-83423259D01*
X141958754Y-83423259D02*
X141958754Y-83118497D01*
X141958754Y-83118497D02*
X141920658Y-83042307D01*
X141920658Y-83042307D02*
X141844468Y-83004211D01*
X141844468Y-83004211D02*
X141692087Y-83004211D01*
X141692087Y-83004211D02*
X141615896Y-83042307D01*
X141615896Y-83042307D02*
X141577801Y-83118497D01*
X141577801Y-83118497D02*
X141577801Y-83194688D01*
X141577801Y-83194688D02*
X141958754Y-83270878D01*
X141234944Y-83537545D02*
X141234944Y-83004211D01*
X141234944Y-83156592D02*
X141196849Y-83080402D01*
X141196849Y-83080402D02*
X141158754Y-83042307D01*
X141158754Y-83042307D02*
X141082563Y-83004211D01*
X141082563Y-83004211D02*
X141006373Y-83004211D01*
X140244468Y-83004211D02*
X139939706Y-83004211D01*
X140130182Y-83537545D02*
X140130182Y-82851830D01*
X140130182Y-82851830D02*
X140092087Y-82775640D01*
X140092087Y-82775640D02*
X140015897Y-82737545D01*
X140015897Y-82737545D02*
X139939706Y-82737545D01*
X139558754Y-83537545D02*
X139634944Y-83499450D01*
X139634944Y-83499450D02*
X139673039Y-83461354D01*
X139673039Y-83461354D02*
X139711135Y-83385164D01*
X139711135Y-83385164D02*
X139711135Y-83156592D01*
X139711135Y-83156592D02*
X139673039Y-83080402D01*
X139673039Y-83080402D02*
X139634944Y-83042307D01*
X139634944Y-83042307D02*
X139558754Y-83004211D01*
X139558754Y-83004211D02*
X139444468Y-83004211D01*
X139444468Y-83004211D02*
X139368277Y-83042307D01*
X139368277Y-83042307D02*
X139330182Y-83080402D01*
X139330182Y-83080402D02*
X139292087Y-83156592D01*
X139292087Y-83156592D02*
X139292087Y-83385164D01*
X139292087Y-83385164D02*
X139330182Y-83461354D01*
X139330182Y-83461354D02*
X139368277Y-83499450D01*
X139368277Y-83499450D02*
X139444468Y-83537545D01*
X139444468Y-83537545D02*
X139558754Y-83537545D01*
X138949229Y-83537545D02*
X138949229Y-83004211D01*
X138949229Y-83156592D02*
X138911134Y-83080402D01*
X138911134Y-83080402D02*
X138873039Y-83042307D01*
X138873039Y-83042307D02*
X138796848Y-83004211D01*
X138796848Y-83004211D02*
X138720658Y-83004211D01*
X137577801Y-83118497D02*
X137844467Y-83118497D01*
X137844467Y-83537545D02*
X137844467Y-82737545D01*
X137844467Y-82737545D02*
X137463515Y-82737545D01*
X136815896Y-83537545D02*
X136815896Y-83118497D01*
X136815896Y-83118497D02*
X136853991Y-83042307D01*
X136853991Y-83042307D02*
X136930182Y-83004211D01*
X136930182Y-83004211D02*
X137082563Y-83004211D01*
X137082563Y-83004211D02*
X137158753Y-83042307D01*
X136815896Y-83499450D02*
X136892087Y-83537545D01*
X136892087Y-83537545D02*
X137082563Y-83537545D01*
X137082563Y-83537545D02*
X137158753Y-83499450D01*
X137158753Y-83499450D02*
X137196849Y-83423259D01*
X137196849Y-83423259D02*
X137196849Y-83347069D01*
X137196849Y-83347069D02*
X137158753Y-83270878D01*
X137158753Y-83270878D02*
X137082563Y-83232783D01*
X137082563Y-83232783D02*
X136892087Y-83232783D01*
X136892087Y-83232783D02*
X136815896Y-83194688D01*
X136434943Y-83004211D02*
X136434943Y-83537545D01*
X136434943Y-83080402D02*
X136396848Y-83042307D01*
X136396848Y-83042307D02*
X136320658Y-83004211D01*
X136320658Y-83004211D02*
X136206372Y-83004211D01*
X136206372Y-83004211D02*
X136130181Y-83042307D01*
X136130181Y-83042307D02*
X136092086Y-83118497D01*
X136092086Y-83118497D02*
X136092086Y-83537545D01*
X135177800Y-83004211D02*
X134987324Y-83537545D01*
X134987324Y-83537545D02*
X134796847Y-83004211D01*
X134073038Y-83537545D02*
X134530181Y-83537545D01*
X134301609Y-83537545D02*
X134301609Y-82737545D01*
X134301609Y-82737545D02*
X134377800Y-82851830D01*
X134377800Y-82851830D02*
X134453990Y-82928021D01*
X134453990Y-82928021D02*
X134530181Y-82966116D01*
X133730180Y-83461354D02*
X133692085Y-83499450D01*
X133692085Y-83499450D02*
X133730180Y-83537545D01*
X133730180Y-83537545D02*
X133768276Y-83499450D01*
X133768276Y-83499450D02*
X133730180Y-83461354D01*
X133730180Y-83461354D02*
X133730180Y-83537545D01*
X133196847Y-82737545D02*
X133120657Y-82737545D01*
X133120657Y-82737545D02*
X133044466Y-82775640D01*
X133044466Y-82775640D02*
X133006371Y-82813735D01*
X133006371Y-82813735D02*
X132968276Y-82889926D01*
X132968276Y-82889926D02*
X132930181Y-83042307D01*
X132930181Y-83042307D02*
X132930181Y-83232783D01*
X132930181Y-83232783D02*
X132968276Y-83385164D01*
X132968276Y-83385164D02*
X133006371Y-83461354D01*
X133006371Y-83461354D02*
X133044466Y-83499450D01*
X133044466Y-83499450D02*
X133120657Y-83537545D01*
X133120657Y-83537545D02*
X133196847Y-83537545D01*
X133196847Y-83537545D02*
X133273038Y-83499450D01*
X133273038Y-83499450D02*
X133311133Y-83461354D01*
X133311133Y-83461354D02*
X133349228Y-83385164D01*
X133349228Y-83385164D02*
X133387324Y-83232783D01*
X133387324Y-83232783D02*
X133387324Y-83042307D01*
X133387324Y-83042307D02*
X133349228Y-82889926D01*
X133349228Y-82889926D02*
X133311133Y-82813735D01*
X133311133Y-82813735D02*
X133273038Y-82775640D01*
X133273038Y-82775640D02*
X133196847Y-82737545D01*
X154492089Y-84825545D02*
X154492089Y-84025545D01*
X154149232Y-84825545D02*
X154149232Y-84406497D01*
X154149232Y-84406497D02*
X154187327Y-84330307D01*
X154187327Y-84330307D02*
X154263518Y-84292211D01*
X154263518Y-84292211D02*
X154377804Y-84292211D01*
X154377804Y-84292211D02*
X154453994Y-84330307D01*
X154453994Y-84330307D02*
X154492089Y-84368402D01*
X153882565Y-84292211D02*
X153577803Y-84292211D01*
X153768279Y-84025545D02*
X153768279Y-84711259D01*
X153768279Y-84711259D02*
X153730184Y-84787450D01*
X153730184Y-84787450D02*
X153653994Y-84825545D01*
X153653994Y-84825545D02*
X153577803Y-84825545D01*
X153425422Y-84292211D02*
X153120660Y-84292211D01*
X153311136Y-84025545D02*
X153311136Y-84711259D01*
X153311136Y-84711259D02*
X153273041Y-84787450D01*
X153273041Y-84787450D02*
X153196851Y-84825545D01*
X153196851Y-84825545D02*
X153120660Y-84825545D01*
X152853993Y-84292211D02*
X152853993Y-85092211D01*
X152853993Y-84330307D02*
X152777803Y-84292211D01*
X152777803Y-84292211D02*
X152625422Y-84292211D01*
X152625422Y-84292211D02*
X152549231Y-84330307D01*
X152549231Y-84330307D02*
X152511136Y-84368402D01*
X152511136Y-84368402D02*
X152473041Y-84444592D01*
X152473041Y-84444592D02*
X152473041Y-84673164D01*
X152473041Y-84673164D02*
X152511136Y-84749354D01*
X152511136Y-84749354D02*
X152549231Y-84787450D01*
X152549231Y-84787450D02*
X152625422Y-84825545D01*
X152625422Y-84825545D02*
X152777803Y-84825545D01*
X152777803Y-84825545D02*
X152853993Y-84787450D01*
X152168279Y-84787450D02*
X152092088Y-84825545D01*
X152092088Y-84825545D02*
X151939707Y-84825545D01*
X151939707Y-84825545D02*
X151863517Y-84787450D01*
X151863517Y-84787450D02*
X151825421Y-84711259D01*
X151825421Y-84711259D02*
X151825421Y-84673164D01*
X151825421Y-84673164D02*
X151863517Y-84596973D01*
X151863517Y-84596973D02*
X151939707Y-84558878D01*
X151939707Y-84558878D02*
X152053993Y-84558878D01*
X152053993Y-84558878D02*
X152130183Y-84520783D01*
X152130183Y-84520783D02*
X152168279Y-84444592D01*
X152168279Y-84444592D02*
X152168279Y-84406497D01*
X152168279Y-84406497D02*
X152130183Y-84330307D01*
X152130183Y-84330307D02*
X152053993Y-84292211D01*
X152053993Y-84292211D02*
X151939707Y-84292211D01*
X151939707Y-84292211D02*
X151863517Y-84330307D01*
X151482564Y-84749354D02*
X151444469Y-84787450D01*
X151444469Y-84787450D02*
X151482564Y-84825545D01*
X151482564Y-84825545D02*
X151520660Y-84787450D01*
X151520660Y-84787450D02*
X151482564Y-84749354D01*
X151482564Y-84749354D02*
X151482564Y-84825545D01*
X151482564Y-84330307D02*
X151444469Y-84368402D01*
X151444469Y-84368402D02*
X151482564Y-84406497D01*
X151482564Y-84406497D02*
X151520660Y-84368402D01*
X151520660Y-84368402D02*
X151482564Y-84330307D01*
X151482564Y-84330307D02*
X151482564Y-84406497D01*
X150530184Y-83987450D02*
X151215898Y-85016021D01*
X149692089Y-83987450D02*
X150377803Y-85016021D01*
X149082565Y-84292211D02*
X149082565Y-84939830D01*
X149082565Y-84939830D02*
X149120660Y-85016021D01*
X149120660Y-85016021D02*
X149158756Y-85054116D01*
X149158756Y-85054116D02*
X149234946Y-85092211D01*
X149234946Y-85092211D02*
X149349232Y-85092211D01*
X149349232Y-85092211D02*
X149425422Y-85054116D01*
X149082565Y-84787450D02*
X149158756Y-84825545D01*
X149158756Y-84825545D02*
X149311137Y-84825545D01*
X149311137Y-84825545D02*
X149387327Y-84787450D01*
X149387327Y-84787450D02*
X149425422Y-84749354D01*
X149425422Y-84749354D02*
X149463518Y-84673164D01*
X149463518Y-84673164D02*
X149463518Y-84444592D01*
X149463518Y-84444592D02*
X149425422Y-84368402D01*
X149425422Y-84368402D02*
X149387327Y-84330307D01*
X149387327Y-84330307D02*
X149311137Y-84292211D01*
X149311137Y-84292211D02*
X149158756Y-84292211D01*
X149158756Y-84292211D02*
X149082565Y-84330307D01*
X148701612Y-84825545D02*
X148701612Y-84292211D01*
X148701612Y-84025545D02*
X148739708Y-84063640D01*
X148739708Y-84063640D02*
X148701612Y-84101735D01*
X148701612Y-84101735D02*
X148663517Y-84063640D01*
X148663517Y-84063640D02*
X148701612Y-84025545D01*
X148701612Y-84025545D02*
X148701612Y-84101735D01*
X148434946Y-84292211D02*
X148130184Y-84292211D01*
X148320660Y-84025545D02*
X148320660Y-84711259D01*
X148320660Y-84711259D02*
X148282565Y-84787450D01*
X148282565Y-84787450D02*
X148206375Y-84825545D01*
X148206375Y-84825545D02*
X148130184Y-84825545D01*
X147863517Y-84825545D02*
X147863517Y-84025545D01*
X147520660Y-84825545D02*
X147520660Y-84406497D01*
X147520660Y-84406497D02*
X147558755Y-84330307D01*
X147558755Y-84330307D02*
X147634946Y-84292211D01*
X147634946Y-84292211D02*
X147749232Y-84292211D01*
X147749232Y-84292211D02*
X147825422Y-84330307D01*
X147825422Y-84330307D02*
X147863517Y-84368402D01*
X146796850Y-84292211D02*
X146796850Y-84825545D01*
X147139707Y-84292211D02*
X147139707Y-84711259D01*
X147139707Y-84711259D02*
X147101612Y-84787450D01*
X147101612Y-84787450D02*
X147025422Y-84825545D01*
X147025422Y-84825545D02*
X146911136Y-84825545D01*
X146911136Y-84825545D02*
X146834945Y-84787450D01*
X146834945Y-84787450D02*
X146796850Y-84749354D01*
X146415897Y-84825545D02*
X146415897Y-84025545D01*
X146415897Y-84330307D02*
X146339707Y-84292211D01*
X146339707Y-84292211D02*
X146187326Y-84292211D01*
X146187326Y-84292211D02*
X146111135Y-84330307D01*
X146111135Y-84330307D02*
X146073040Y-84368402D01*
X146073040Y-84368402D02*
X146034945Y-84444592D01*
X146034945Y-84444592D02*
X146034945Y-84673164D01*
X146034945Y-84673164D02*
X146073040Y-84749354D01*
X146073040Y-84749354D02*
X146111135Y-84787450D01*
X146111135Y-84787450D02*
X146187326Y-84825545D01*
X146187326Y-84825545D02*
X146339707Y-84825545D01*
X146339707Y-84825545D02*
X146415897Y-84787450D01*
X145692087Y-84749354D02*
X145653992Y-84787450D01*
X145653992Y-84787450D02*
X145692087Y-84825545D01*
X145692087Y-84825545D02*
X145730183Y-84787450D01*
X145730183Y-84787450D02*
X145692087Y-84749354D01*
X145692087Y-84749354D02*
X145692087Y-84825545D01*
X144968278Y-84787450D02*
X145044469Y-84825545D01*
X145044469Y-84825545D02*
X145196850Y-84825545D01*
X145196850Y-84825545D02*
X145273040Y-84787450D01*
X145273040Y-84787450D02*
X145311135Y-84749354D01*
X145311135Y-84749354D02*
X145349231Y-84673164D01*
X145349231Y-84673164D02*
X145349231Y-84444592D01*
X145349231Y-84444592D02*
X145311135Y-84368402D01*
X145311135Y-84368402D02*
X145273040Y-84330307D01*
X145273040Y-84330307D02*
X145196850Y-84292211D01*
X145196850Y-84292211D02*
X145044469Y-84292211D01*
X145044469Y-84292211D02*
X144968278Y-84330307D01*
X144511136Y-84825545D02*
X144587326Y-84787450D01*
X144587326Y-84787450D02*
X144625421Y-84749354D01*
X144625421Y-84749354D02*
X144663517Y-84673164D01*
X144663517Y-84673164D02*
X144663517Y-84444592D01*
X144663517Y-84444592D02*
X144625421Y-84368402D01*
X144625421Y-84368402D02*
X144587326Y-84330307D01*
X144587326Y-84330307D02*
X144511136Y-84292211D01*
X144511136Y-84292211D02*
X144396850Y-84292211D01*
X144396850Y-84292211D02*
X144320659Y-84330307D01*
X144320659Y-84330307D02*
X144282564Y-84368402D01*
X144282564Y-84368402D02*
X144244469Y-84444592D01*
X144244469Y-84444592D02*
X144244469Y-84673164D01*
X144244469Y-84673164D02*
X144282564Y-84749354D01*
X144282564Y-84749354D02*
X144320659Y-84787450D01*
X144320659Y-84787450D02*
X144396850Y-84825545D01*
X144396850Y-84825545D02*
X144511136Y-84825545D01*
X143901611Y-84825545D02*
X143901611Y-84292211D01*
X143901611Y-84368402D02*
X143863516Y-84330307D01*
X143863516Y-84330307D02*
X143787326Y-84292211D01*
X143787326Y-84292211D02*
X143673040Y-84292211D01*
X143673040Y-84292211D02*
X143596849Y-84330307D01*
X143596849Y-84330307D02*
X143558754Y-84406497D01*
X143558754Y-84406497D02*
X143558754Y-84825545D01*
X143558754Y-84406497D02*
X143520659Y-84330307D01*
X143520659Y-84330307D02*
X143444468Y-84292211D01*
X143444468Y-84292211D02*
X143330183Y-84292211D01*
X143330183Y-84292211D02*
X143253992Y-84330307D01*
X143253992Y-84330307D02*
X143215897Y-84406497D01*
X143215897Y-84406497D02*
X143215897Y-84825545D01*
X142263516Y-83987450D02*
X142949230Y-85016021D01*
X142034945Y-84787450D02*
X141958754Y-84825545D01*
X141958754Y-84825545D02*
X141806373Y-84825545D01*
X141806373Y-84825545D02*
X141730183Y-84787450D01*
X141730183Y-84787450D02*
X141692087Y-84711259D01*
X141692087Y-84711259D02*
X141692087Y-84673164D01*
X141692087Y-84673164D02*
X141730183Y-84596973D01*
X141730183Y-84596973D02*
X141806373Y-84558878D01*
X141806373Y-84558878D02*
X141920659Y-84558878D01*
X141920659Y-84558878D02*
X141996849Y-84520783D01*
X141996849Y-84520783D02*
X142034945Y-84444592D01*
X142034945Y-84444592D02*
X142034945Y-84406497D01*
X142034945Y-84406497D02*
X141996849Y-84330307D01*
X141996849Y-84330307D02*
X141920659Y-84292211D01*
X141920659Y-84292211D02*
X141806373Y-84292211D01*
X141806373Y-84292211D02*
X141730183Y-84330307D01*
X141006373Y-84825545D02*
X141006373Y-84406497D01*
X141006373Y-84406497D02*
X141044468Y-84330307D01*
X141044468Y-84330307D02*
X141120659Y-84292211D01*
X141120659Y-84292211D02*
X141273040Y-84292211D01*
X141273040Y-84292211D02*
X141349230Y-84330307D01*
X141006373Y-84787450D02*
X141082564Y-84825545D01*
X141082564Y-84825545D02*
X141273040Y-84825545D01*
X141273040Y-84825545D02*
X141349230Y-84787450D01*
X141349230Y-84787450D02*
X141387326Y-84711259D01*
X141387326Y-84711259D02*
X141387326Y-84635069D01*
X141387326Y-84635069D02*
X141349230Y-84558878D01*
X141349230Y-84558878D02*
X141273040Y-84520783D01*
X141273040Y-84520783D02*
X141082564Y-84520783D01*
X141082564Y-84520783D02*
X141006373Y-84482688D01*
X140625420Y-84292211D02*
X140625420Y-84825545D01*
X140625420Y-84368402D02*
X140587325Y-84330307D01*
X140587325Y-84330307D02*
X140511135Y-84292211D01*
X140511135Y-84292211D02*
X140396849Y-84292211D01*
X140396849Y-84292211D02*
X140320658Y-84330307D01*
X140320658Y-84330307D02*
X140282563Y-84406497D01*
X140282563Y-84406497D02*
X140282563Y-84825545D01*
X139901610Y-84825545D02*
X139901610Y-84025545D01*
X139825420Y-84520783D02*
X139596848Y-84825545D01*
X139596848Y-84292211D02*
X139901610Y-84596973D01*
X138949229Y-84787450D02*
X139025420Y-84825545D01*
X139025420Y-84825545D02*
X139177801Y-84825545D01*
X139177801Y-84825545D02*
X139253991Y-84787450D01*
X139253991Y-84787450D02*
X139292087Y-84711259D01*
X139292087Y-84711259D02*
X139292087Y-84406497D01*
X139292087Y-84406497D02*
X139253991Y-84330307D01*
X139253991Y-84330307D02*
X139177801Y-84292211D01*
X139177801Y-84292211D02*
X139025420Y-84292211D01*
X139025420Y-84292211D02*
X138949229Y-84330307D01*
X138949229Y-84330307D02*
X138911134Y-84406497D01*
X138911134Y-84406497D02*
X138911134Y-84482688D01*
X138911134Y-84482688D02*
X139292087Y-84558878D01*
X138682563Y-84292211D02*
X138377801Y-84292211D01*
X138568277Y-84025545D02*
X138568277Y-84711259D01*
X138568277Y-84711259D02*
X138530182Y-84787450D01*
X138530182Y-84787450D02*
X138453992Y-84825545D01*
X138453992Y-84825545D02*
X138377801Y-84825545D01*
X138149230Y-84787450D02*
X138073039Y-84825545D01*
X138073039Y-84825545D02*
X137920658Y-84825545D01*
X137920658Y-84825545D02*
X137844468Y-84787450D01*
X137844468Y-84787450D02*
X137806372Y-84711259D01*
X137806372Y-84711259D02*
X137806372Y-84673164D01*
X137806372Y-84673164D02*
X137844468Y-84596973D01*
X137844468Y-84596973D02*
X137920658Y-84558878D01*
X137920658Y-84558878D02*
X138034944Y-84558878D01*
X138034944Y-84558878D02*
X138111134Y-84520783D01*
X138111134Y-84520783D02*
X138149230Y-84444592D01*
X138149230Y-84444592D02*
X138149230Y-84406497D01*
X138149230Y-84406497D02*
X138111134Y-84330307D01*
X138111134Y-84330307D02*
X138034944Y-84292211D01*
X138034944Y-84292211D02*
X137920658Y-84292211D01*
X137920658Y-84292211D02*
X137844468Y-84330307D01*
X137501611Y-84787450D02*
X137425420Y-84825545D01*
X137425420Y-84825545D02*
X137273039Y-84825545D01*
X137273039Y-84825545D02*
X137196849Y-84787450D01*
X137196849Y-84787450D02*
X137158753Y-84711259D01*
X137158753Y-84711259D02*
X137158753Y-84673164D01*
X137158753Y-84673164D02*
X137196849Y-84596973D01*
X137196849Y-84596973D02*
X137273039Y-84558878D01*
X137273039Y-84558878D02*
X137387325Y-84558878D01*
X137387325Y-84558878D02*
X137463515Y-84520783D01*
X137463515Y-84520783D02*
X137501611Y-84444592D01*
X137501611Y-84444592D02*
X137501611Y-84406497D01*
X137501611Y-84406497D02*
X137463515Y-84330307D01*
X137463515Y-84330307D02*
X137387325Y-84292211D01*
X137387325Y-84292211D02*
X137273039Y-84292211D01*
X137273039Y-84292211D02*
X137196849Y-84330307D01*
X136701611Y-84368402D02*
X136777801Y-84330307D01*
X136777801Y-84330307D02*
X136815896Y-84292211D01*
X136815896Y-84292211D02*
X136853992Y-84216021D01*
X136853992Y-84216021D02*
X136853992Y-84177926D01*
X136853992Y-84177926D02*
X136815896Y-84101735D01*
X136815896Y-84101735D02*
X136777801Y-84063640D01*
X136777801Y-84063640D02*
X136701611Y-84025545D01*
X136701611Y-84025545D02*
X136549230Y-84025545D01*
X136549230Y-84025545D02*
X136473039Y-84063640D01*
X136473039Y-84063640D02*
X136434944Y-84101735D01*
X136434944Y-84101735D02*
X136396849Y-84177926D01*
X136396849Y-84177926D02*
X136396849Y-84216021D01*
X136396849Y-84216021D02*
X136434944Y-84292211D01*
X136434944Y-84292211D02*
X136473039Y-84330307D01*
X136473039Y-84330307D02*
X136549230Y-84368402D01*
X136549230Y-84368402D02*
X136701611Y-84368402D01*
X136701611Y-84368402D02*
X136777801Y-84406497D01*
X136777801Y-84406497D02*
X136815896Y-84444592D01*
X136815896Y-84444592D02*
X136853992Y-84520783D01*
X136853992Y-84520783D02*
X136853992Y-84673164D01*
X136853992Y-84673164D02*
X136815896Y-84749354D01*
X136815896Y-84749354D02*
X136777801Y-84787450D01*
X136777801Y-84787450D02*
X136701611Y-84825545D01*
X136701611Y-84825545D02*
X136549230Y-84825545D01*
X136549230Y-84825545D02*
X136473039Y-84787450D01*
X136473039Y-84787450D02*
X136434944Y-84749354D01*
X136434944Y-84749354D02*
X136396849Y-84673164D01*
X136396849Y-84673164D02*
X136396849Y-84520783D01*
X136396849Y-84520783D02*
X136434944Y-84444592D01*
X136434944Y-84444592D02*
X136473039Y-84406497D01*
X136473039Y-84406497D02*
X136549230Y-84368402D01*
X135711134Y-84292211D02*
X135711134Y-84825545D01*
X135901610Y-83987450D02*
X136092087Y-84558878D01*
X136092087Y-84558878D02*
X135596848Y-84558878D01*
X134720658Y-83987450D02*
X135406372Y-85016021D01*
X134530182Y-84292211D02*
X134339706Y-84825545D01*
X134339706Y-84825545D02*
X134149229Y-84292211D01*
X133730182Y-84825545D02*
X133806372Y-84787450D01*
X133806372Y-84787450D02*
X133844467Y-84749354D01*
X133844467Y-84749354D02*
X133882563Y-84673164D01*
X133882563Y-84673164D02*
X133882563Y-84444592D01*
X133882563Y-84444592D02*
X133844467Y-84368402D01*
X133844467Y-84368402D02*
X133806372Y-84330307D01*
X133806372Y-84330307D02*
X133730182Y-84292211D01*
X133730182Y-84292211D02*
X133615896Y-84292211D01*
X133615896Y-84292211D02*
X133539705Y-84330307D01*
X133539705Y-84330307D02*
X133501610Y-84368402D01*
X133501610Y-84368402D02*
X133463515Y-84444592D01*
X133463515Y-84444592D02*
X133463515Y-84673164D01*
X133463515Y-84673164D02*
X133501610Y-84749354D01*
X133501610Y-84749354D02*
X133539705Y-84787450D01*
X133539705Y-84787450D02*
X133615896Y-84825545D01*
X133615896Y-84825545D02*
X133730182Y-84825545D01*
X133120657Y-84825545D02*
X133120657Y-84292211D01*
X133120657Y-84444592D02*
X133082562Y-84368402D01*
X133082562Y-84368402D02*
X133044467Y-84330307D01*
X133044467Y-84330307D02*
X132968276Y-84292211D01*
X132968276Y-84292211D02*
X132892086Y-84292211D01*
X132511134Y-84825545D02*
X132587324Y-84787450D01*
X132587324Y-84787450D02*
X132625419Y-84749354D01*
X132625419Y-84749354D02*
X132663515Y-84673164D01*
X132663515Y-84673164D02*
X132663515Y-84444592D01*
X132663515Y-84444592D02*
X132625419Y-84368402D01*
X132625419Y-84368402D02*
X132587324Y-84330307D01*
X132587324Y-84330307D02*
X132511134Y-84292211D01*
X132511134Y-84292211D02*
X132396848Y-84292211D01*
X132396848Y-84292211D02*
X132320657Y-84330307D01*
X132320657Y-84330307D02*
X132282562Y-84368402D01*
X132282562Y-84368402D02*
X132244467Y-84444592D01*
X132244467Y-84444592D02*
X132244467Y-84673164D01*
X132244467Y-84673164D02*
X132282562Y-84749354D01*
X132282562Y-84749354D02*
X132320657Y-84787450D01*
X132320657Y-84787450D02*
X132396848Y-84825545D01*
X132396848Y-84825545D02*
X132511134Y-84825545D01*
X131901609Y-84292211D02*
X131901609Y-84825545D01*
X131901609Y-84368402D02*
X131863514Y-84330307D01*
X131863514Y-84330307D02*
X131787324Y-84292211D01*
X131787324Y-84292211D02*
X131673038Y-84292211D01*
X131673038Y-84292211D02*
X131596847Y-84330307D01*
X131596847Y-84330307D02*
X131558752Y-84406497D01*
X131558752Y-84406497D02*
X131558752Y-84825545D01*
X131368276Y-84901735D02*
X130758752Y-84901735D01*
X130568275Y-84825545D02*
X130568275Y-84292211D01*
X130568275Y-84368402D02*
X130530180Y-84330307D01*
X130530180Y-84330307D02*
X130453990Y-84292211D01*
X130453990Y-84292211D02*
X130339704Y-84292211D01*
X130339704Y-84292211D02*
X130263513Y-84330307D01*
X130263513Y-84330307D02*
X130225418Y-84406497D01*
X130225418Y-84406497D02*
X130225418Y-84825545D01*
X130225418Y-84406497D02*
X130187323Y-84330307D01*
X130187323Y-84330307D02*
X130111132Y-84292211D01*
X130111132Y-84292211D02*
X129996847Y-84292211D01*
X129996847Y-84292211D02*
X129920656Y-84330307D01*
X129920656Y-84330307D02*
X129882561Y-84406497D01*
X129882561Y-84406497D02*
X129882561Y-84825545D01*
X129387323Y-84825545D02*
X129463513Y-84787450D01*
X129463513Y-84787450D02*
X129501608Y-84749354D01*
X129501608Y-84749354D02*
X129539704Y-84673164D01*
X129539704Y-84673164D02*
X129539704Y-84444592D01*
X129539704Y-84444592D02*
X129501608Y-84368402D01*
X129501608Y-84368402D02*
X129463513Y-84330307D01*
X129463513Y-84330307D02*
X129387323Y-84292211D01*
X129387323Y-84292211D02*
X129273037Y-84292211D01*
X129273037Y-84292211D02*
X129196846Y-84330307D01*
X129196846Y-84330307D02*
X129158751Y-84368402D01*
X129158751Y-84368402D02*
X129120656Y-84444592D01*
X129120656Y-84444592D02*
X129120656Y-84673164D01*
X129120656Y-84673164D02*
X129158751Y-84749354D01*
X129158751Y-84749354D02*
X129196846Y-84787450D01*
X129196846Y-84787450D02*
X129273037Y-84825545D01*
X129273037Y-84825545D02*
X129387323Y-84825545D01*
X128434941Y-84825545D02*
X128434941Y-84025545D01*
X128434941Y-84787450D02*
X128511132Y-84825545D01*
X128511132Y-84825545D02*
X128663513Y-84825545D01*
X128663513Y-84825545D02*
X128739703Y-84787450D01*
X128739703Y-84787450D02*
X128777798Y-84749354D01*
X128777798Y-84749354D02*
X128815894Y-84673164D01*
X128815894Y-84673164D02*
X128815894Y-84444592D01*
X128815894Y-84444592D02*
X128777798Y-84368402D01*
X128777798Y-84368402D02*
X128739703Y-84330307D01*
X128739703Y-84330307D02*
X128663513Y-84292211D01*
X128663513Y-84292211D02*
X128511132Y-84292211D01*
X128511132Y-84292211D02*
X128434941Y-84330307D01*
X128092084Y-84787450D02*
X128015893Y-84825545D01*
X128015893Y-84825545D02*
X127863512Y-84825545D01*
X127863512Y-84825545D02*
X127787322Y-84787450D01*
X127787322Y-84787450D02*
X127749226Y-84711259D01*
X127749226Y-84711259D02*
X127749226Y-84673164D01*
X127749226Y-84673164D02*
X127787322Y-84596973D01*
X127787322Y-84596973D02*
X127863512Y-84558878D01*
X127863512Y-84558878D02*
X127977798Y-84558878D01*
X127977798Y-84558878D02*
X128053988Y-84520783D01*
X128053988Y-84520783D02*
X128092084Y-84444592D01*
X128092084Y-84444592D02*
X128092084Y-84406497D01*
X128092084Y-84406497D02*
X128053988Y-84330307D01*
X128053988Y-84330307D02*
X127977798Y-84292211D01*
X127977798Y-84292211D02*
X127863512Y-84292211D01*
X127863512Y-84292211D02*
X127787322Y-84330307D01*
%LPC*%
D11*
X133350000Y-81768750D03*
D12*
X131350000Y-80168750D03*
D13*
X131350000Y-77668750D03*
D11*
X123825000Y-81756250D03*
D12*
X121825000Y-80156250D03*
D13*
X121825000Y-77656250D03*
D14*
X113506250Y-78581250D03*
D15*
X113506250Y-78581250D03*
D14*
X150812500Y-78581250D03*
D15*
X150812500Y-78581250D03*
D11*
X143287500Y-81887500D03*
D12*
X141287500Y-80287500D03*
D13*
X141287500Y-77787500D03*
%LPD*%
M02*
